<?xml version="1.0" encoding="utf-8"?>
<!-- Generator: Adobe Illustrator 26.4.1, SVG Export Plug-In . SVG Version: 6.00 Build 0)  -->
<svg version="1.1" id="Layer_1" xmlns="http://www.w3.org/2000/svg" xmlns:xlink="http://www.w3.org/1999/xlink" x="0px" y="0px"
	 viewBox="0 0 107.8 85.2" style="enable-background:new 0 0 107.8 85.2;" xml:space="preserve">
<style type="text/css">
	.st0{clip-path:url(#SVGID_00000126289074234542671740000011366910801214849971_);}
	.st1{fill:rgb(38 14 88);}
	.st2{fill-rule:evenodd;clip-rule:evenodd;fill:rgb(38 14 88);}
</style>
<g>
	<defs>
		<rect id="SVGID_1_" x="3.4" y="3.3" width="100" height="77"/>
	</defs>
	<clipPath id="SVGID_00000026857618633490621200000015799989071610594455_">
		<use xlink:href="#SVGID_1_"  style="overflow:visible;"/>
	</clipPath>
	<g style="clip-path:url(#SVGID_00000026857618633490621200000015799989071610594455_);">
		<path class="st1" d="M98.7,76.5H8.2c-0.6,0-1-0.4-1-1V20.3c0-0.4,0.3-0.8,0.6-0.9L39.3,7c0.2-0.1,0.4-0.1,0.6,0L99,23
			c0.4,0.1,0.7,0.5,0.7,1v51.6C99.7,76.1,99.2,76.5,98.7,76.5z M9.2,74.5h88.5V24.8L39.8,9L9.2,21V74.5z"/>
		<path class="st2" d="M32,56.7v10.2c0,0.4,0.1,0.8,0.2,1h-5.7c0.1-0.2,0.2-0.5,0.2-1V44.5c0-0.4-0.1-0.8-0.2-1h5.7
			c-0.1,0.3-0.2,0.6-0.2,1v9.3h5.8v-9.3c0-0.3-0.1-0.7-0.2-1h5.9c-0.1,0.2-0.2,0.5-0.2,1v22.4c0,0.4,0.1,0.8,0.2,1h-5.9
			c0.1-0.2,0.2-0.5,0.2-1V56.7H32z"/>
		<path class="st2" d="M53,43.3c2,0,3.6,0.5,4.8,1.4c1.5,1.2,2.3,3.1,2.3,5.8c0,2.5-0.7,4.4-2,5.6c-1.2,1.1-3,1.7-5.2,1.7
			c-1.5,0-2.8-0.2-3.7-0.7c-1.2-0.6-2-1.6-2.6-2.9c-0.4-1-0.6-2.3-0.6-3.7c0-0.8,0.1-1.5,0.3-2.3c0.2-0.8,0.4-1.4,0.7-1.9
			C48,44.3,50.1,43.3,53,43.3z M53,45.3c-0.8,0-1.4,0.4-1.8,1.2c-0.4,0.8-0.6,2.1-0.6,3.9c0,1.8,0.2,3.1,0.5,4
			c0.4,0.9,1,1.3,1.9,1.3c0.8,0,1.4-0.4,1.8-1.2c0.4-0.8,0.6-2.1,0.6-4c0-1.8-0.2-3.2-0.5-4C54.5,45.7,53.9,45.3,53,45.3z"/>
		<path class="st2" d="M64.4,49.8l-0.8,7c0,0.1,0,0.1,0,0.2c0,0.2,0,0.3,0.1,0.5h-2.5c0.1-0.2,0.2-0.4,0.2-0.7l1.7-12.6
			c0-0.1,0-0.3,0-0.4c0,0,0-0.1,0-0.3h4c0,0.1,0,0.1,0,0.2c0,0.1,0,0.3,0.1,0.5l2.5,8l2.5-8c0.1-0.2,0.1-0.4,0.1-0.6
			c0,0,0-0.1,0-0.1h3.9c0,0.1,0,0.2,0,0.3c0,0.1,0,0.2,0,0.4l1.6,12.6c0,0.3,0.1,0.5,0.2,0.7h-4.8c0-0.1,0-0.2,0-0.3
			c0-0.1,0-0.2,0-0.4l-0.6-7l-2.2,7c-0.1,0.2-0.1,0.4-0.1,0.5c0,0,0,0.1,0,0.2h-3.6c0-0.1,0-0.1,0-0.1c0-0.1,0-0.3-0.1-0.6
			L64.4,49.8z"/>
		<path class="st2" d="M79.7,43.6h8.5v2.1c-0.2-0.1-0.4-0.1-0.7-0.1h-3.2v4h3.2c0.3,0,0.5,0,0.7-0.1v2.1c-0.2-0.1-0.4-0.1-0.7-0.1
			h-3.2v3.9h3.1c0.4,0,0.6,0,0.8-0.1v2.2h-8.5c0.1-0.2,0.1-0.4,0.1-0.7V44.3C79.9,43.9,79.8,43.7,79.7,43.6z"/>
		<path class="st2" d="M39.8,17.4l29.6,8.1H19.3L39.8,17.4z"/>
		<path class="st2" d="M21.1,36.8c0,0.6,0,1.2,0,2c0,0.7,0.1,1.6,0.1,2.6c-0.1,0-0.3-0.1-0.5-0.1c-0.2,0-0.3,0-0.5,0
			c-0.2,0-0.4,0-0.5,0c-0.2,0-0.3,0-0.4,0.1c0.1-1.4,0.1-2.8,0.2-4.2s0.1-2.8,0.1-4.1c0-1.1,0-2.1-0.1-3c0-0.9-0.1-1.8-0.2-2.6
			c0.2,0,0.4,0,0.6,0c0.2,0,0.4,0,0.7,0c0.4,0,0.9,0,1.5,0c0.6,0,1,0,1.3,0c1.3,0,2.2,0.3,2.9,0.8c0.7,0.5,1,1.3,1,2.4
			c0,0.9-0.3,1.7-0.9,2.3c-0.6,0.6-1.5,1-2.6,1.3c0.8,1.2,1.6,2.4,2.4,3.6c0.8,1.2,1.6,2.3,2.4,3.5c-0.2,0-0.5-0.1-0.7-0.1
			c-0.2,0-0.4,0-0.6,0c-0.2,0-0.4,0-0.6,0c-0.2,0-0.4,0-0.7,0.1c-0.6-1.2-1.3-2.3-2-3.4c-0.7-1.1-1.5-2.2-2.3-3.3h-0.4L21.1,36.8z
			 M21.1,33.9c0.1,0,0.2,0,0.2,0c0.1,0,0.2,0,0.4,0c1.2,0,2.1-0.2,2.7-0.7c0.6-0.5,0.9-1.2,0.9-2.2c0-0.9-0.3-1.5-0.8-2
			c-0.5-0.5-1.3-0.7-2.3-0.7c-0.2,0-0.4,0-0.6,0c-0.2,0-0.4,0-0.5,0.1c0,0.3-0.1,0.7-0.1,1.1c0,0.4,0,0.9,0,1.5L21.1,33.9L21.1,33.9
			z"/>
		<path class="st2" d="M29.6,41.4c0.1-1,0.1-2.1,0.2-3.2c0-1.1,0.1-2.3,0.1-3.6c0-1.4,0-2.7-0.1-3.8c0-1.1-0.1-2.1-0.2-3
			c0.2,0,0.4,0,0.5,0.1c0.2,0,0.4,0,0.5,0s0.3,0,0.5,0c0.2,0,0.4,0,0.6-0.1c-0.1,0.8-0.1,1.8-0.2,2.9c0,1.1-0.1,2.4-0.1,4
			c0,1.4,0,2.7,0.1,3.8c0,1.1,0.1,2.1,0.2,3c-0.2,0-0.3-0.1-0.5-0.1s-0.4,0-0.6,0s-0.4,0-0.6,0C29.9,41.3,29.8,41.4,29.6,41.4z"/>
		<path class="st2" d="M45.7,40.9c-0.9,0.3-1.7,0.5-2.5,0.6s-1.6,0.2-2.4,0.2c-2.1,0-3.8-0.6-5-1.9c-1.2-1.3-1.8-3-1.8-5.3
			c0-2.2,0.6-3.9,1.9-5.2c1.3-1.3,3-1.9,5.1-1.9c0.9,0,1.7,0.1,2.5,0.3c0.8,0.2,1.5,0.5,2.1,0.9c-0.2,0.3-0.3,0.6-0.3,0.9
			c-0.1,0.3-0.1,0.6-0.1,1h-0.3c-0.5-0.8-1-1.3-1.7-1.7c-0.7-0.4-1.4-0.6-2.3-0.6c-1.5,0-2.6,0.6-3.5,1.7c-0.9,1.1-1.3,2.6-1.3,4.5
			c0,2,0.4,3.6,1.3,4.7c0.9,1.1,2.1,1.7,3.6,1.7c0.5,0,1-0.1,1.4-0.2c0.5-0.1,0.9-0.3,1.4-0.5c0-0.3,0-0.6,0-1c0-0.3,0-0.6,0-1
			c0-0.5,0-1,0-1.5c0-0.5-0.1-0.9-0.1-1.4c0.2,0,0.3,0.1,0.5,0.1c0.2,0,0.3,0,0.5,0c0.2,0,0.4,0,0.5,0c0.2,0,0.4,0,0.5-0.1
			c0,0.5-0.1,1.1-0.1,1.5c0,0.5,0,0.9,0,1.3c0,0.4,0,0.9,0,1.3S45.6,40.4,45.7,40.9z"/>
		<path class="st2" d="M49.9,34.6v2.2c0,1,0,1.8,0,2.6c0,0.8,0.1,1.5,0.1,2c-0.1,0-0.3-0.1-0.5-0.1c-0.2,0-0.4,0-0.6,0
			c-0.2,0-0.4,0-0.6,0c-0.2,0-0.3,0-0.5,0.1c0.1-1,0.1-2.1,0.2-3.2c0-1.1,0.1-2.3,0.1-3.6c0-1.4,0-2.7-0.1-3.8c0-1.1-0.1-2.1-0.2-3
			c0.2,0,0.4,0,0.5,0.1c0.2,0,0.3,0,0.5,0c0.2,0,0.3,0,0.5,0c0.2,0,0.4,0,0.5-0.1c0,0.6-0.1,1.3-0.1,1.9c0,0.6,0,1.3,0,1.9v1.8
			c0.6,0,1.2,0,1.7,0.1c0.6,0,1.1,0,1.7,0c0.6,0,1.1,0,1.7,0c0.6,0,1.1,0,1.7,0v-1.8c0-0.7,0-1.3,0-2c0-0.6-0.1-1.3-0.1-1.9
			c0.2,0,0.4,0,0.6,0.1c0.2,0,0.3,0,0.5,0s0.3,0,0.5,0c0.2,0,0.4,0,0.5-0.1c-0.1,0.8-0.1,1.8-0.2,2.9c0,1.1-0.1,2.4-0.1,4
			c0,1.4,0,2.7,0.1,3.8c0,1.1,0.1,2.1,0.2,3c-0.1,0-0.3-0.1-0.5-0.1c-0.2,0-0.4,0-0.6,0c-0.2,0-0.4,0-0.6,0c-0.2,0-0.3,0-0.5,0.1
			c0-0.6,0.1-1.2,0.1-1.8c0-0.6,0-1.6,0-2.8v-2.2c-0.4,0-0.8,0-1.3,0c-0.5,0-1.2,0-2.1,0c-0.9,0-1.6,0-2.1,0
			C50.7,34.5,50.3,34.5,49.9,34.6z"/>
		<path class="st2" d="M63.9,28.8h-1.1c-0.3,0-0.6,0-1,0.1c-0.4,0-1,0.1-1.6,0.2c0-0.1,0.1-0.2,0.1-0.4c0-0.1,0-0.2,0-0.4
			c0-0.1,0-0.2,0-0.4c0-0.1,0-0.2-0.1-0.3c0.8,0,1.6,0.1,2.4,0.1c0.8,0,1.5,0,2.2,0c0.8,0,1.6,0,2.4,0c0.8,0,1.5-0.1,2.2-0.1
			c0,0.2-0.1,0.3-0.1,0.4c0,0.1,0,0.2,0,0.3c0,0.1,0,0.2,0,0.3c0,0.1,0,0.2,0.1,0.4c-0.6-0.1-1.2-0.2-1.6-0.2s-0.8-0.1-1.1-0.1h-1
			c0,0.5-0.1,1-0.1,1.3c0,0.4,0,0.7,0,1c0,2.7,0,4.8,0.1,6.5c0,1.7,0.1,3,0.2,3.8c-0.1,0-0.3-0.1-0.5-0.1c-0.2,0-0.4,0-0.6,0
			c-0.2,0-0.4,0-0.6,0c-0.2,0-0.3,0-0.5,0.1c0.1-0.9,0.1-2,0.2-3.4c0-1.4,0.1-3.2,0.1-5.3c0-0.9,0-1.7,0-2.2
			C64,29.8,64,29.3,63.9,28.8z"/>
		<path class="st2" d="M74.2,35.5c0.2,0,0.3,0,0.5,0c0.2,0,0.3,0,0.5,0c0.2,0,0.3,0,0.4,0c0.1,0,0.3,0,0.4,0l-0.9-2.6L74.2,35.5z
			 M72.5,38.7c0.4-1.1,0.9-2.2,1.3-3.4c0.5-1.2,0.9-2.4,1.4-3.8c0,0,0.1,0,0.1,0c0,0,0.1,0,0.1,0c0,0,0.1,0,0.1,0c0,0,0.1,0,0.1,0
			c0.4,1.2,0.8,2.4,1.3,3.6c0.4,1.2,0.9,2.4,1.3,3.6c-0.1,0-0.2,0-0.3,0c-0.1,0-0.2,0-0.3,0c-0.1,0-0.2,0-0.3,0c-0.1,0-0.2,0-0.3,0
			c-0.1-0.5-0.3-1-0.4-1.4c-0.1-0.4-0.3-0.9-0.4-1.3c-0.2,0-0.3,0-0.5,0c-0.2,0-0.4,0-0.5,0c-0.2,0-0.4,0-0.6,0c-0.2,0-0.4,0-0.6,0
			l-0.4,1.1c-0.1,0.2-0.2,0.5-0.2,0.8c-0.1,0.3-0.1,0.5-0.2,0.8c-0.1,0-0.1,0-0.2,0c-0.1,0-0.1,0-0.2,0s-0.1,0-0.2,0
			C72.6,38.7,72.5,38.7,72.5,38.7z"/>
		<path class="st2" d="M79.6,32.2h-0.6c-0.1,0-0.3,0-0.5,0c-0.2,0-0.5,0.1-0.8,0.1c0-0.1,0-0.1,0-0.2c0-0.1,0-0.1,0-0.2
			c0-0.1,0-0.1,0-0.2c0-0.1,0-0.1,0-0.2c0.4,0,0.8,0,1.2,0c0.4,0,0.8,0,1.2,0c0.4,0,0.8,0,1.2,0c0.4,0,0.8,0,1.1,0
			c0,0.1,0,0.2,0,0.2c0,0,0,0.1,0,0.1s0,0.1,0,0.2c0,0.1,0,0.1,0,0.2c-0.3,0-0.6-0.1-0.8-0.1c-0.2,0-0.4,0-0.6,0h-0.6
			c0,0.3,0,0.5,0,0.7c0,0.2,0,0.4,0,0.5c0,1.4,0,2.5,0,3.4c0,0.9,0.1,1.5,0.1,1.9c-0.1,0-0.2,0-0.2,0c-0.1,0-0.2,0-0.3,0
			c-0.1,0-0.2,0-0.3,0c-0.1,0-0.2,0-0.2,0c0-0.5,0.1-1,0.1-1.8c0-0.7,0-1.6,0-2.7c0-0.5,0-0.9,0-1.1C79.7,32.8,79.7,32.5,79.6,32.2z
			"/>
		<path class="st1" d="M46.8,60.4h0.9c0.2,0,0.4,0,0.6,0.1c0.2,0.1,0.3,0.1,0.4,0.3c0.1,0.1,0.1,0.2,0.1,0.4c0,0.2-0.1,0.3-0.2,0.4
			c-0.1,0.1-0.3,0.2-0.5,0.3l0.7,1.3h-0.3l-0.7-1.3H47v1.3h-0.3L46.8,60.4L46.8,60.4z M47,60.6v1h0.6c0.2,0,0.3,0,0.4-0.1
			c0.1,0,0.2-0.1,0.2-0.2c0.1-0.1,0.1-0.2,0.1-0.3c0-0.1-0.1-0.3-0.2-0.4c-0.1-0.1-0.3-0.1-0.5-0.1H47z"/>
		<path class="st1" d="M51.5,60.4h1.6v0.3h-1.4v0.9h1v0.3h-1v1.1h1.5v0.3h-1.8V60.4z"/>
		<path class="st1" d="M56.5,60.4H57l0.9,2.8h-0.3l-0.3-0.9h-1.1l-0.3,0.9h-0.3L56.5,60.4z M56.7,60.6L56.3,62h1L56.7,60.6z"/>
		<path class="st1" d="M60.5,60.4h0.3v2.5h1.3v0.3h-1.6V60.4z"/>
		<path class="st1" d="M64,60.4h2v0.3h-0.9v2.5h-0.3v-2.5H64V60.4z"/>
		<path class="st1" d="M68.4,60.4h0.3l0.7,1.3l0.8-1.3h0.3l-0.9,1.6v1.2h-0.3v-1.2L68.4,60.4z"/>
		<path class="st1" d="M46.8,65.1h1c0.3,0,0.6,0.1,0.8,0.2c0.2,0.1,0.3,0.3,0.3,0.5c0,0.1,0,0.2-0.1,0.4c-0.1,0.1-0.2,0.2-0.4,0.3
			c0.2,0.1,0.3,0.2,0.4,0.3c0.1,0.1,0.1,0.2,0.1,0.4c0,0.2-0.1,0.4-0.3,0.5c-0.2,0.1-0.4,0.2-0.8,0.2h-1V65.1z M47,65.3v1h0.5
			c0.3,0,0.6,0,0.7-0.1c0.1-0.1,0.2-0.2,0.2-0.3c0-0.1-0.1-0.2-0.2-0.3c-0.1-0.1-0.3-0.1-0.5-0.1L47,65.3z M47,66.6v1.1h0.7
			c0.2,0,0.4-0.1,0.6-0.2c0.1-0.1,0.2-0.2,0.2-0.3c0-0.1,0-0.2-0.1-0.3c-0.1-0.1-0.2-0.1-0.3-0.2c-0.1,0-0.3-0.1-0.4-0.1H47z"/>
		<path class="st1" d="M51.9,65.1h0.9c0.2,0,0.4,0,0.6,0.1c0.2,0.1,0.3,0.1,0.4,0.3c0.1,0.1,0.1,0.2,0.1,0.4c0,0.2-0.1,0.3-0.2,0.4
			c-0.1,0.1-0.3,0.2-0.5,0.3l0.7,1.3h-0.3l-0.7-1.3h-0.8v1.3h-0.3V65.1z M52.1,65.3v1h0.6c0.2,0,0.3,0,0.4-0.1
			c0.1,0,0.2-0.1,0.2-0.2c0.1-0.1,0.1-0.2,0.1-0.3c0-0.1-0.1-0.3-0.2-0.4c-0.1-0.1-0.3-0.1-0.5-0.1H52.1z"/>
		<path class="st1" d="M57.7,67.9c-0.3,0-0.6-0.1-0.8-0.3c-0.3-0.3-0.4-0.6-0.4-1.1c0-0.3,0.1-0.5,0.2-0.8c0.1-0.2,0.2-0.4,0.4-0.5
			c0.2-0.1,0.4-0.2,0.6-0.2c0.2,0,0.4,0,0.5,0.1c0.2,0.1,0.3,0.2,0.4,0.3c0.1,0.1,0.2,0.3,0.2,0.4c0.1,0.2,0.1,0.3,0.1,0.5
			c0,0.2,0,0.4-0.1,0.5c-0.1,0.2-0.1,0.3-0.2,0.4c-0.1,0.1-0.2,0.2-0.2,0.2c-0.1,0.1-0.2,0.1-0.3,0.2C57.9,67.9,57.8,67.9,57.7,67.9
			z M57.7,67.7c0.2,0,0.5-0.1,0.6-0.3c0.2-0.2,0.3-0.5,0.3-0.9c0-0.4-0.1-0.7-0.3-0.9c-0.2-0.2-0.3-0.3-0.6-0.3
			c-0.2,0-0.4,0.1-0.6,0.3c-0.2,0.2-0.3,0.5-0.3,0.9c0,0.4,0.1,0.7,0.3,0.9C57.3,67.6,57.5,67.7,57.7,67.7z"/>
		<path class="st1" d="M62,65.1h0.3v1.4l1.3-1.4h0.4l-1,1l1.1,1.7h-0.3l-1-1.5l-0.5,0.6v1h-0.3L62,65.1L62,65.1z"/>
		<path class="st1" d="M66.9,65.1h1.6v0.3h-1.4v0.9h1v0.3h-1v1.1h1.5v0.3h-1.8L66.9,65.1L66.9,65.1z"/>
		<path class="st1" d="M71.7,65.1h0.9c0.3,0,0.4,0,0.6,0.1c0.2,0.1,0.3,0.1,0.4,0.3c0.1,0.1,0.1,0.2,0.1,0.4c0,0.2-0.1,0.3-0.2,0.4
			c-0.1,0.1-0.3,0.2-0.5,0.3l0.7,1.3h-0.3l-0.7-1.3H72v1.3h-0.3L71.7,65.1z M72,65.3v1h0.6c0.2,0,0.3,0,0.4-0.1
			c0.1,0,0.2-0.1,0.2-0.2c0.1-0.1,0.1-0.2,0.1-0.3c0-0.1-0.1-0.3-0.2-0.4c-0.1-0.1-0.3-0.1-0.5-0.1H72z"/>
		<path class="st1" d="M77.3,65.1h0.4l0.9,2.8h-0.3L78.1,67h-1.1l-0.3,0.9h-0.3L77.3,65.1z M77.5,65.3L77,66.7h1L77.5,65.3z"/>
		<path class="st1" d="M83.1,67.5c-0.1,0.1-0.2,0.2-0.4,0.3c-0.1,0.1-0.3,0.1-0.5,0.1c-0.3,0-0.6-0.1-0.8-0.3
			c-0.2-0.3-0.4-0.6-0.4-1.1s0.1-0.8,0.3-1.1c0.2-0.2,0.5-0.4,0.8-0.4c0.2,0,0.3,0,0.5,0.1c0.2,0.1,0.3,0.2,0.4,0.3
			c0.1,0.1,0.1,0.2,0.2,0.4l-0.3,0.1c0-0.1-0.1-0.2-0.1-0.3c-0.1-0.1-0.2-0.2-0.3-0.3c-0.1-0.1-0.2-0.1-0.4-0.1
			c-0.2,0-0.4,0.1-0.6,0.3c-0.2,0.2-0.3,0.5-0.3,0.9c0,0.2,0,0.4,0.1,0.6c0.1,0.2,0.2,0.3,0.3,0.4c0.1,0.1,0.3,0.1,0.4,0.1
			c0.1,0,0.2,0,0.4-0.1c0.1,0,0.2-0.1,0.3-0.2c0.1-0.1,0.1-0.2,0.1-0.3c0-0.1,0-0.2,0-0.3h-0.7v-0.3h1v1.3h-0.3L83.1,67.5L83.1,67.5
			z"/>
		<path class="st1" d="M86.5,65.1h1.6v0.3h-1.4v0.9h1v0.3h-1v1.1h1.5v0.3h-1.8L86.5,65.1z"/>
		<path class="st1" d="M40.2,4.5l61.1,16.7c0.6,0.2,1,0.7,1,1.3v55.3c0,0.8-0.6,1.4-1.4,1.4H6c-0.8,0-1.4-0.6-1.4-1.4V19.1
			c0-0.6,0.4-1.1,0.9-1.3L39.3,4.5C39.6,4.4,39.9,4.4,40.2,4.5z M4.7,16.9c-0.8,0.3-1.2,1-1.2,1.8v59.5c0,1.1,0.9,2,2,2h96
			c1.1,0,2-0.9,2-2V22c0-0.9-0.6-1.7-1.5-1.9L40.3,3.3c-0.4-0.1-0.9-0.1-1.3,0.1L4.7,16.9z"/>
	</g>
</g>
</svg>
